<svg width="400" height="83" viewBox="0 0 400 83" fill="none" xmlns="http://www.w3.org/2000/svg">
<path d="M5.20893 4.98994C8.24748 1.9514 12.1542 0.432129 16.712 0.432129C23.0061 0.432129 27.5639 2.60252 30.3854 6.72625C31.9047 9.11368 32.7729 11.2841 32.9899 13.6715H25.1765C24.7424 11.9352 24.0913 10.4159 23.2232 9.54776C21.9209 8.02849 19.7505 7.16033 17.1461 7.16033C14.3246 7.16033 12.1542 8.24553 10.6349 10.633C8.89859 12.8033 8.03044 16.0589 8.03044 20.3997C8.03044 24.7405 8.89859 27.779 10.6349 29.9494C12.3712 32.1198 14.5416 32.988 17.1461 32.988C19.7505 32.988 21.9209 32.1198 23.2232 30.3835C24.0913 29.5153 24.7424 27.9961 25.1765 26.0427H32.9899C32.3388 30.1664 30.6025 33.422 27.781 36.0265C24.9595 38.631 21.4869 39.9332 17.1461 39.9332C11.7201 39.9332 7.59636 38.1969 4.55782 34.7243C1.51927 31.2516 0 26.4768 0 20.3997C0 13.6715 1.73631 8.6796 5.20893 4.98994Z" fill="#023059"/>
<path d="M68.1501 35.3773C65.3286 38.1988 61.2048 39.7181 55.7789 39.7181C50.3529 39.7181 46.2292 38.1988 43.4077 35.3773C39.501 31.9047 37.7646 26.6958 37.7646 19.9676C37.9817 13.0223 39.718 7.8134 43.6247 4.34078C46.4462 1.51927 50.5699 0 55.9959 0C61.4219 0 65.5456 1.51927 68.3671 4.34078C72.0568 7.8134 74.0101 13.0223 74.0101 19.7505C73.7931 26.4787 71.8397 31.6877 68.1501 35.3773ZM63.1582 29.5173C64.8945 27.1299 65.9797 23.8743 65.9797 19.7505C65.9797 15.6268 65.1115 12.3712 63.1582 9.98379C61.2048 7.59636 58.8174 6.51117 55.7789 6.51117C52.7403 6.51117 50.1359 7.59636 48.3996 9.98379C46.6632 12.3712 45.578 15.6268 45.578 19.7505C45.578 23.8743 46.4462 27.1299 48.3996 29.5173C50.3529 31.9047 52.7403 32.9899 55.7789 32.9899C58.8174 32.9899 61.4219 31.9047 63.1582 29.5173Z" fill="#023059"/>
<path d="M103.744 2.17089C105.047 2.822 106.349 3.69016 107.217 4.77535C108.085 5.64351 108.736 6.7287 109.17 8.03094C109.604 9.11613 109.821 10.4184 109.821 11.9376C109.821 13.6739 109.387 15.4103 108.519 17.1466C107.651 18.8829 106.132 20.1851 103.961 20.8362C105.698 21.4873 107 22.5725 107.651 23.8748C108.302 25.177 108.736 27.1304 108.736 29.7348V32.3393C108.736 34.0756 108.736 35.1608 108.953 35.8119C109.17 36.6801 109.604 37.5482 110.473 37.9823V38.8505H101.791C101.574 37.9823 101.357 37.3312 101.357 36.8971C101.14 35.8119 101.14 34.7267 100.923 33.6415V30.1689C100.923 27.7815 100.489 26.2622 99.6207 25.394C98.7525 24.5259 97.4503 23.8748 95.2799 23.8748H87.6835V38.6334H80.0872V1.08569H97.8843C100.489 1.30273 102.442 1.51977 103.744 2.17089ZM87.6835 7.59686V17.5806H96.148C97.8843 17.5806 99.1866 17.3636 99.8377 16.9295C101.357 16.2784 102.008 14.7591 102.008 12.8058C102.008 10.6354 101.357 8.89909 99.8377 8.24798C98.9695 7.8139 97.8843 7.59686 96.148 7.59686H87.6835Z" fill="#023059"/>
<path d="M117.201 1.08569H125.449L140.424 27.1304V1.08569H147.804V38.6334H139.99L124.798 11.9376V38.6334H117.418V1.08569H117.201Z" fill="#023059"/>
<path d="M182.746 7.8139H162.996V15.8443H181.227V22.3555H162.996V31.9052H183.831V38.6334H155.182V1.08569H182.746V7.8139Z" fill="#023059"/>
<path d="M213.784 2.17089C215.086 2.822 216.389 3.69016 217.257 4.77535C218.125 5.64351 218.776 6.7287 219.21 8.03094C219.644 9.11613 219.861 10.4184 219.861 11.9376C219.861 13.6739 219.427 15.4103 218.559 17.1466C217.691 18.8829 216.172 20.1851 214.001 20.8362C215.738 21.4873 217.04 22.5725 217.691 23.8748C218.342 25.177 218.776 27.1304 218.776 29.7348V32.3393C218.776 34.0756 218.776 35.1608 218.993 35.8119C219.21 36.6801 219.644 37.5482 220.512 37.9823V38.8505H211.831C211.614 37.9823 211.397 37.3312 211.397 36.8971C211.18 35.8119 211.18 34.7267 210.963 33.6415V30.1689C210.963 27.7815 210.529 26.2622 209.66 25.394C208.792 24.5259 207.273 24.0918 205.103 24.0918H197.506V38.8505H189.91V1.08569H207.924C210.529 1.30273 212.482 1.51977 213.784 2.17089ZM197.506 7.59686V17.5806H205.971C207.707 17.5806 208.792 17.3636 209.66 16.9295C211.18 16.2784 211.831 14.7591 211.831 12.8058C211.831 10.6354 211.18 8.89909 209.66 8.24798C208.792 7.8139 207.707 7.59686 205.971 7.59686H197.506Z" fill="#023059"/>
<path d="M233.098 27.1279C233.315 28.8642 233.749 30.1665 234.617 31.0346C235.919 32.5539 238.09 33.422 241.345 33.422C243.299 33.422 244.818 33.205 245.903 32.7709C248.073 31.9028 249.159 30.6005 249.159 28.4301C249.159 27.1279 248.508 26.2598 247.422 25.6086C246.337 24.9575 244.601 24.3064 242.213 23.8723L238.09 23.0042C234.183 22.136 231.362 21.2679 229.842 20.1827C227.238 18.4464 226.153 15.8419 226.153 12.1522C226.153 8.89664 227.455 6.07514 229.842 3.68771C232.23 1.30028 235.919 0.432129 240.694 0.432129C244.601 0.432129 248.073 1.51732 250.895 3.47067C253.716 5.64106 255.236 8.67961 255.236 12.5863H247.639C247.422 10.4159 246.554 8.6796 244.601 7.81145C243.299 7.16033 241.779 6.94329 239.826 6.94329C237.656 6.94329 236.136 7.37737 234.834 8.24553C233.532 9.11368 232.881 10.1989 232.881 11.7181C232.881 13.0204 233.532 14.1056 234.617 14.7567C235.485 15.1908 237.005 15.6248 239.609 16.276L246.12 17.7952C248.942 18.4464 251.112 19.3145 252.631 20.6167C254.802 22.3531 255.887 24.9575 255.887 28.2131C255.887 31.6857 254.585 34.5072 251.98 36.6776C249.376 38.848 245.686 40.1502 240.694 40.1502C235.702 40.1502 231.796 39.065 228.974 36.8947C226.153 34.7243 224.633 31.6857 224.633 27.779H233.098V27.1279Z" fill="#023059"/>
<path d="M289.312 1.08569V7.8139H278.026V38.6334H270.213V7.8139H258.927V1.08569H289.312Z" fill="#023059"/>
<path d="M321.871 35.3768C319.05 38.1983 314.926 39.7176 309.5 39.7176C304.074 39.7176 299.95 38.1983 297.129 35.3768C293.222 31.9042 291.486 26.6953 291.486 19.9671C291.486 13.0218 293.439 8.02995 297.129 4.55733C299.95 1.73582 304.074 0.216553 309.5 0.216553C314.926 0.216553 319.05 1.73582 321.871 4.55733C325.561 8.02995 327.514 13.2389 327.514 19.9671C327.514 26.4782 325.778 31.6872 321.871 35.3768ZM317.096 29.5168C318.833 27.1294 319.918 23.8738 319.918 19.75C319.918 15.6263 319.05 12.3707 317.096 9.9833C315.143 7.59587 312.756 6.51068 309.717 6.51068C306.679 6.51068 304.074 7.59587 302.338 9.9833C300.601 12.3707 299.516 15.6263 299.516 19.75C299.516 23.8738 300.384 27.1294 302.338 29.5168C304.291 31.9042 306.679 32.9894 309.717 32.9894C312.756 32.9894 315.143 31.9042 317.096 29.5168Z" fill="#023059"/>
<path d="M333.37 1.08569H341.618L356.593 27.1304V1.08569H363.973V38.6334H356.159L340.966 11.9376V38.6334H333.587V1.08569H333.37Z" fill="#023059"/>
<path d="M398.915 7.8139H379.164V15.8443H397.395V22.3555H379.164V31.9052H400V38.6334H371.351V1.08569H398.915V7.8139Z" fill="#023059"/>
<path d="M6.94504 48.8342V63.3758H27.5637V48.8342H30.8193V82.2582H27.5637V66.1973H6.94504V82.2582H3.68945V48.8342H6.94504Z" fill="#023059"/>
<path d="M61.855 48.8342V51.4387H41.2363V63.3758H60.5528V65.9803H41.2363V79.2197H62.072V81.8241H37.9807V48.8342H61.855Z" fill="#023059"/>
<path d="M80.5213 48.8345L94.1948 82.2585H90.7221L86.3814 71.6236H70.5375L66.4138 82.0414H62.9412L76.8316 48.6174H80.5213V48.8345ZM85.2962 69.0191L78.568 51.873L71.6227 69.0191H85.2962Z" fill="#023059"/>
<path d="M100.49 48.8342V79.4367H119.807V82.0412H97.2349V48.8342H100.49Z" fill="#023059"/>
<path d="M126.751 48.8342V82.2582H123.496V48.8342H126.751Z" fill="#023059"/>
<path d="M137.603 48.8342L157.787 77.0493V48.8342H161.043V82.2582H157.353L137.169 54.0432V82.2582H133.913V48.8342H137.603Z" fill="#023059"/>
<path d="M195.554 82.0399L195.12 75.9629C194.469 77.0481 193.818 78.1332 192.95 79.0014C192.082 79.8696 191.213 80.5207 190.128 81.1718C189.043 81.8229 187.958 82.0399 186.873 82.257C185.787 82.474 184.485 82.6911 183.183 82.6911C180.361 82.6911 177.974 82.257 176.021 81.1718C174.067 80.3036 172.331 79.0014 170.812 77.2651C169.509 75.7458 168.424 73.7925 167.773 71.8391C167.122 69.8858 166.688 67.4983 166.688 65.328C166.688 63.1576 167.122 60.7701 167.773 58.8168C168.424 56.6464 169.509 54.9101 170.812 53.3908C172.114 51.8715 173.85 50.5693 176.021 49.4841C177.974 48.616 180.361 47.9648 183.183 47.9648C184.919 47.9648 186.656 48.1819 188.392 48.616C189.911 49.05 191.43 49.7012 192.733 50.7863C194.035 51.6545 195.12 52.9567 195.988 54.259C196.856 55.5612 197.508 57.2975 197.725 59.0338H194.469C194.469 58.1657 194.035 57.0805 193.384 56.2123C192.733 55.1271 192.082 54.259 190.996 53.6079C190.128 52.7397 188.826 52.0886 187.524 51.6545C186.221 51.2204 184.702 50.7863 182.966 50.7863C180.578 50.7863 178.625 51.2204 177.106 52.0886C175.587 52.9567 174.067 54.0419 172.982 55.3442C171.897 56.6464 171.246 58.3827 170.595 60.119C170.161 61.8553 169.944 63.5916 169.944 65.545C169.944 67.2813 170.161 69.2347 170.595 70.971C171.029 72.7073 171.897 74.2265 172.982 75.7458C174.067 77.2651 175.37 78.3503 177.106 79.0014C178.842 79.6525 180.796 80.3036 182.966 80.3036C184.919 80.3036 186.656 80.0866 188.175 79.4355C189.694 78.7844 190.996 77.9162 192.082 76.831C193.167 75.7458 193.818 74.4436 194.469 72.9243C194.903 71.405 195.12 69.8858 195.12 67.9324H183.4V65.1109H197.725V82.0399H195.554Z" fill="#023059"/>
<path d="M241.565 55.3442C240.914 54.259 240.046 53.3908 239.178 52.7397C238.31 52.0886 237.224 51.4375 235.922 51.2204C234.62 51.0034 233.535 50.7863 232.233 50.7863C229.845 50.7863 227.892 51.2204 226.372 52.0886C224.636 52.9567 223.334 54.0419 222.249 55.3442C221.164 56.6464 220.512 58.3827 219.861 60.119C219.427 61.8553 219.21 63.5916 219.21 65.545C219.21 67.2813 219.427 69.2347 219.861 70.971C220.295 72.7073 221.164 74.2265 222.249 75.7458C223.334 77.2651 224.636 78.3503 226.372 79.0014C228.109 79.8696 230.062 80.3036 232.233 80.3036C233.752 80.3036 235.271 80.0866 236.573 79.4355C237.876 78.7844 238.961 78.1332 239.829 77.0481C240.697 76.1799 241.565 74.8777 242.216 73.5754C242.867 72.2732 243.084 70.971 243.301 69.4517H246.557C246.34 71.405 245.906 73.3584 245.038 75.0947C244.17 76.831 243.301 78.1332 241.999 79.2184C240.697 80.3036 239.395 81.1718 237.658 81.8229C235.922 82.474 234.186 82.6911 232.015 82.6911C229.194 82.6911 226.807 82.257 224.853 81.1718C222.9 80.3036 221.164 79.0014 219.644 77.2651C218.342 75.7458 217.257 73.7925 216.606 71.8391C215.955 69.6687 215.521 67.4983 215.521 65.328C215.521 63.1576 215.955 60.7701 216.606 58.8168C217.257 56.6464 218.342 54.9101 219.644 53.3908C220.946 51.8715 222.683 50.5693 224.853 49.4841C226.807 48.616 229.194 47.9648 232.015 47.9648C233.752 47.9648 235.271 48.1819 236.79 48.616C238.31 49.05 239.829 49.7012 241.131 50.7863C242.433 51.8715 243.519 52.7397 244.387 54.259C245.255 55.5612 245.689 57.0805 245.906 58.8168H242.65C242.65 57.5146 242.216 56.4294 241.565 55.3442Z" fill="#023059"/>
<path d="M275.853 48.8342V51.4387H255.235V63.3758H274.551V65.9803H255.235V79.2197H276.07V81.8241H251.979V48.8342H275.853Z" fill="#023059"/>
<path d="M284.322 48.8342L304.507 77.0493V48.8342H307.762V82.2582H304.073L283.888 54.0432V82.2582H280.632V48.8342H284.322Z" fill="#023059"/>
<path d="M338.58 48.8342V51.4387H326.425V82.0412H323.17V51.4387H311.233V48.8342H338.58Z" fill="#023059"/>
<path d="M365.711 48.8342V51.4387H345.092V63.3758H364.409V65.9803H345.092V79.2197H365.928V81.8241H341.837V48.8342H365.711Z" fill="#023059"/>
<path d="M386.331 48.8342C387.851 48.8342 389.153 49.0513 390.455 49.2683C391.757 49.7024 392.843 50.1365 393.711 50.7876C394.579 51.4387 395.447 52.3069 396.098 53.392C396.749 54.4772 396.966 55.7795 396.966 57.2987C396.966 59.4691 396.315 61.2054 395.23 62.7247C394.145 64.244 392.408 65.3292 390.238 65.7633C391.323 65.9803 392.408 66.1973 393.06 66.6314C393.711 67.0655 394.362 67.4996 394.796 68.1507C395.23 68.8018 395.664 69.4529 395.881 70.3211C396.098 71.1892 396.315 72.0574 396.315 73.1426C396.315 73.7937 396.315 74.4448 396.315 75.0959C396.315 75.9641 396.315 76.6152 396.532 77.4834C396.749 78.3515 396.749 79.0026 396.966 79.8708C397.183 80.5219 397.4 81.173 397.834 81.6071H394.145C393.928 81.3901 393.711 80.956 393.711 80.5219C393.494 80.0878 393.494 79.6538 393.494 79.2197C393.494 78.7856 393.494 78.3515 393.277 77.7004C393.277 77.2663 393.277 76.8322 393.277 76.3982C393.277 75.313 393.06 74.0107 393.06 72.9255C392.843 71.8403 392.626 70.7552 392.191 69.887C391.757 69.0188 391.106 68.1507 390.238 67.7166C389.37 67.0655 388.068 66.8485 386.548 67.0655H373.96V81.8241H370.705V48.8342H386.331ZM386.114 64.461C387.2 64.461 388.068 64.244 388.936 64.027C389.804 63.8099 390.672 63.3758 391.323 62.7247C391.974 62.0736 392.626 61.4225 392.843 60.7714C393.06 60.1203 393.494 59.0351 393.494 57.9499C393.494 55.9965 392.843 54.2602 391.757 53.175C390.455 52.0898 388.719 51.4387 386.114 51.4387H373.743V64.461H386.114Z" fill="#023059"/>
</svg>
